<mxfile host="app.diagrams.net" modified="2021-10-31T06:32:55.582Z" agent="5.0 (Windows NT 10.0; Win64; x64) AppleWebKit/537.36 (KHTML, like Gecko) Chrome/95.0.4638.69 Safari/537.36" etag="4S8__6hMw9CMsKa9ACrr" version="15.6.2" type="github">
  <diagram id="AvAmrXeJMITSYm6m10ji" name="Page-1">
    <mxGraphModel dx="1234" dy="436" grid="1" gridSize="10" guides="1" tooltips="1" connect="1" arrows="1" fold="1" page="1" pageScale="1" pageWidth="827" pageHeight="1169" math="0" shadow="0">
      <root>
        <mxCell id="0" />
        <mxCell id="1" parent="0" />
        <mxCell id="VlSEnMjIKudBYeggMokB-75" value="" style="rounded=0;whiteSpace=wrap;html=1;" vertex="1" parent="1">
          <mxGeometry x="330" y="720" width="110" height="115" as="geometry" />
        </mxCell>
        <mxCell id="VlSEnMjIKudBYeggMokB-72" value="" style="rounded=0;whiteSpace=wrap;html=1;" vertex="1" parent="1">
          <mxGeometry x="210" y="590" width="110" height="115" as="geometry" />
        </mxCell>
        <mxCell id="VlSEnMjIKudBYeggMokB-70" value="" style="rounded=0;whiteSpace=wrap;html=1;" vertex="1" parent="1">
          <mxGeometry x="350" y="560" width="120" height="80" as="geometry" />
        </mxCell>
        <mxCell id="VlSEnMjIKudBYeggMokB-6" style="edgeStyle=orthogonalEdgeStyle;rounded=0;orthogonalLoop=1;jettySize=auto;html=1;" edge="1" parent="1" source="VlSEnMjIKudBYeggMokB-1">
          <mxGeometry relative="1" as="geometry">
            <mxPoint x="200" y="500" as="targetPoint" />
          </mxGeometry>
        </mxCell>
        <mxCell id="VlSEnMjIKudBYeggMokB-1" value="PDF" style="rounded=0;whiteSpace=wrap;html=1;" vertex="1" parent="1">
          <mxGeometry x="10" y="470" width="120" height="60" as="geometry" />
        </mxCell>
        <mxCell id="VlSEnMjIKudBYeggMokB-2" value="IMG" style="rounded=0;whiteSpace=wrap;html=1;" vertex="1" parent="1">
          <mxGeometry x="210" y="460" width="50" height="50" as="geometry" />
        </mxCell>
        <mxCell id="VlSEnMjIKudBYeggMokB-3" value="IMG" style="rounded=0;whiteSpace=wrap;html=1;" vertex="1" parent="1">
          <mxGeometry x="220" y="470" width="50" height="50" as="geometry" />
        </mxCell>
        <mxCell id="VlSEnMjIKudBYeggMokB-4" value="IMG" style="rounded=0;whiteSpace=wrap;html=1;" vertex="1" parent="1">
          <mxGeometry x="230" y="480" width="50" height="50" as="geometry" />
        </mxCell>
        <mxCell id="VlSEnMjIKudBYeggMokB-9" style="edgeStyle=orthogonalEdgeStyle;rounded=0;orthogonalLoop=1;jettySize=auto;html=1;exitX=0.5;exitY=1;exitDx=0;exitDy=0;" edge="1" parent="1" source="VlSEnMjIKudBYeggMokB-5">
          <mxGeometry relative="1" as="geometry">
            <mxPoint x="265" y="590" as="targetPoint" />
          </mxGeometry>
        </mxCell>
        <mxCell id="VlSEnMjIKudBYeggMokB-5" value="IMG" style="rounded=0;whiteSpace=wrap;html=1;" vertex="1" parent="1">
          <mxGeometry x="240" y="490" width="50" height="50" as="geometry" />
        </mxCell>
        <mxCell id="VlSEnMjIKudBYeggMokB-10" value="part" style="rounded=0;whiteSpace=wrap;html=1;" vertex="1" parent="1">
          <mxGeometry x="220" y="590" width="40" height="30" as="geometry" />
        </mxCell>
        <mxCell id="VlSEnMjIKudBYeggMokB-26" style="edgeStyle=orthogonalEdgeStyle;rounded=0;orthogonalLoop=1;jettySize=auto;html=1;" edge="1" parent="1" source="VlSEnMjIKudBYeggMokB-13">
          <mxGeometry relative="1" as="geometry">
            <mxPoint x="360" y="605" as="targetPoint" />
          </mxGeometry>
        </mxCell>
        <mxCell id="VlSEnMjIKudBYeggMokB-13" value="part" style="rounded=0;whiteSpace=wrap;html=1;" vertex="1" parent="1">
          <mxGeometry x="270" y="590" width="40" height="30" as="geometry" />
        </mxCell>
        <mxCell id="VlSEnMjIKudBYeggMokB-21" value="part" style="rounded=0;whiteSpace=wrap;html=1;" vertex="1" parent="1">
          <mxGeometry x="270" y="640" width="40" height="30" as="geometry" />
        </mxCell>
        <mxCell id="VlSEnMjIKudBYeggMokB-22" value="part" style="rounded=0;whiteSpace=wrap;html=1;" vertex="1" parent="1">
          <mxGeometry x="220" y="640" width="40" height="30" as="geometry" />
        </mxCell>
        <mxCell id="VlSEnMjIKudBYeggMokB-23" value="" style="endArrow=none;dashed=1;html=1;rounded=0;entryX=0.5;entryY=1;entryDx=0;entryDy=0;exitX=0.5;exitY=0;exitDx=0;exitDy=0;" edge="1" parent="1" source="VlSEnMjIKudBYeggMokB-22" target="VlSEnMjIKudBYeggMokB-10">
          <mxGeometry width="50" height="50" relative="1" as="geometry">
            <mxPoint x="215" y="680" as="sourcePoint" />
            <mxPoint x="265" y="630" as="targetPoint" />
          </mxGeometry>
        </mxCell>
        <mxCell id="VlSEnMjIKudBYeggMokB-24" value="" style="endArrow=none;dashed=1;html=1;rounded=0;entryX=0.5;entryY=1;entryDx=0;entryDy=0;" edge="1" parent="1">
          <mxGeometry width="50" height="50" relative="1" as="geometry">
            <mxPoint x="290" y="640" as="sourcePoint" />
            <mxPoint x="289.5" y="620" as="targetPoint" />
          </mxGeometry>
        </mxCell>
        <mxCell id="VlSEnMjIKudBYeggMokB-31" style="edgeStyle=orthogonalEdgeStyle;rounded=0;orthogonalLoop=1;jettySize=auto;html=1;exitX=1;exitY=0.5;exitDx=0;exitDy=0;entryX=0;entryY=0.5;entryDx=0;entryDy=0;" edge="1" parent="1" source="VlSEnMjIKudBYeggMokB-30" target="VlSEnMjIKudBYeggMokB-32">
          <mxGeometry relative="1" as="geometry">
            <mxPoint x="420" y="606" as="targetPoint" />
          </mxGeometry>
        </mxCell>
        <mxCell id="VlSEnMjIKudBYeggMokB-35" style="edgeStyle=orthogonalEdgeStyle;rounded=0;orthogonalLoop=1;jettySize=auto;html=1;exitX=0.5;exitY=1;exitDx=0;exitDy=0;" edge="1" parent="1" source="VlSEnMjIKudBYeggMokB-30">
          <mxGeometry relative="1" as="geometry">
            <mxPoint x="375" y="660" as="targetPoint" />
          </mxGeometry>
        </mxCell>
        <mxCell id="VlSEnMjIKudBYeggMokB-30" value="DB" style="shape=ext;double=1;rounded=1;whiteSpace=wrap;html=1;" vertex="1" parent="1">
          <mxGeometry x="359" y="582.5" width="31" height="47.5" as="geometry" />
        </mxCell>
        <mxCell id="VlSEnMjIKudBYeggMokB-37" style="edgeStyle=orthogonalEdgeStyle;rounded=0;orthogonalLoop=1;jettySize=auto;html=1;exitX=0.5;exitY=1;exitDx=0;exitDy=0;" edge="1" parent="1" source="VlSEnMjIKudBYeggMokB-32">
          <mxGeometry relative="1" as="geometry">
            <mxPoint x="440" y="660" as="targetPoint" />
          </mxGeometry>
        </mxCell>
        <mxCell id="VlSEnMjIKudBYeggMokB-32" value="CRNN" style="shape=ext;double=1;rounded=1;whiteSpace=wrap;html=1;" vertex="1" parent="1">
          <mxGeometry x="420" y="582.5" width="40" height="48.75" as="geometry" />
        </mxCell>
        <mxCell id="VlSEnMjIKudBYeggMokB-36" value="box" style="rounded=0;whiteSpace=wrap;html=1;" vertex="1" parent="1">
          <mxGeometry x="354.5" y="660" width="40" height="30" as="geometry" />
        </mxCell>
        <mxCell id="VlSEnMjIKudBYeggMokB-38" value="text" style="rounded=0;whiteSpace=wrap;html=1;" vertex="1" parent="1">
          <mxGeometry x="420" y="660" width="40" height="30" as="geometry" />
        </mxCell>
        <mxCell id="VlSEnMjIKudBYeggMokB-39" value="" style="strokeWidth=2;html=1;shape=mxgraph.flowchart.annotation_2;align=left;labelPosition=right;pointerEvents=1;rotation=-90;" vertex="1" parent="1">
          <mxGeometry x="387.5" y="672.5" width="35" height="70" as="geometry" />
        </mxCell>
        <mxCell id="VlSEnMjIKudBYeggMokB-40" value="_part" style="rounded=0;whiteSpace=wrap;html=1;" vertex="1" parent="1">
          <mxGeometry x="387.5" y="720" width="40" height="30" as="geometry" />
        </mxCell>
        <mxCell id="VlSEnMjIKudBYeggMokB-41" value="_part" style="rounded=0;whiteSpace=wrap;html=1;" vertex="1" parent="1">
          <mxGeometry x="340" y="720" width="40" height="30" as="geometry" />
        </mxCell>
        <mxCell id="VlSEnMjIKudBYeggMokB-42" value="_part" style="rounded=0;whiteSpace=wrap;html=1;" vertex="1" parent="1">
          <mxGeometry x="340" y="770" width="40" height="30" as="geometry" />
        </mxCell>
        <mxCell id="VlSEnMjIKudBYeggMokB-43" value="_part" style="rounded=0;whiteSpace=wrap;html=1;" vertex="1" parent="1">
          <mxGeometry x="387.5" y="770" width="40" height="30" as="geometry" />
        </mxCell>
        <mxCell id="VlSEnMjIKudBYeggMokB-45" value="" style="endArrow=none;dashed=1;html=1;rounded=0;entryX=0.5;entryY=1;entryDx=0;entryDy=0;exitX=0.5;exitY=0;exitDx=0;exitDy=0;" edge="1" parent="1">
          <mxGeometry width="50" height="50" relative="1" as="geometry">
            <mxPoint x="260" y="660" as="sourcePoint" />
            <mxPoint x="260" y="640" as="targetPoint" />
          </mxGeometry>
        </mxCell>
        <mxCell id="VlSEnMjIKudBYeggMokB-48" value="" style="endArrow=none;dashed=1;html=1;rounded=0;entryX=0.5;entryY=1;entryDx=0;entryDy=0;exitX=0.5;exitY=0;exitDx=0;exitDy=0;" edge="1" parent="1">
          <mxGeometry width="50" height="50" relative="1" as="geometry">
            <mxPoint x="260" y="660" as="sourcePoint" />
            <mxPoint x="260" y="640" as="targetPoint" />
          </mxGeometry>
        </mxCell>
        <mxCell id="VlSEnMjIKudBYeggMokB-49" value="" style="endArrow=none;dashed=1;html=1;rounded=0;entryX=0.5;entryY=1;entryDx=0;entryDy=0;exitX=0.5;exitY=0;exitDx=0;exitDy=0;" edge="1" parent="1">
          <mxGeometry width="50" height="50" relative="1" as="geometry">
            <mxPoint x="270" y="670" as="sourcePoint" />
            <mxPoint x="270" y="650" as="targetPoint" />
          </mxGeometry>
        </mxCell>
        <mxCell id="VlSEnMjIKudBYeggMokB-53" value="" style="endArrow=none;dashed=1;html=1;rounded=0;entryX=0.5;entryY=1;entryDx=0;entryDy=0;" edge="1" parent="1">
          <mxGeometry width="50" height="50" relative="1" as="geometry">
            <mxPoint x="360" y="770" as="sourcePoint" />
            <mxPoint x="359.5" y="750" as="targetPoint" />
          </mxGeometry>
        </mxCell>
        <mxCell id="VlSEnMjIKudBYeggMokB-58" value="" style="endArrow=none;dashed=1;html=1;rounded=0;entryX=0.5;entryY=1;entryDx=0;entryDy=0;" edge="1" parent="1">
          <mxGeometry width="50" height="50" relative="1" as="geometry">
            <mxPoint x="407" y="770" as="sourcePoint" />
            <mxPoint x="407" y="750" as="targetPoint" />
          </mxGeometry>
        </mxCell>
        <mxCell id="VlSEnMjIKudBYeggMokB-60" value="result&lt;br&gt;IMG" style="rounded=0;whiteSpace=wrap;html=1;" vertex="1" parent="1">
          <mxGeometry x="490" y="730" width="50" height="50" as="geometry" />
        </mxCell>
        <mxCell id="VlSEnMjIKudBYeggMokB-64" value="" style="endArrow=classic;html=1;rounded=0;exitX=1;exitY=0.348;exitDx=0;exitDy=0;exitPerimeter=0;" edge="1" parent="1" source="VlSEnMjIKudBYeggMokB-75">
          <mxGeometry width="50" height="50" relative="1" as="geometry">
            <mxPoint x="450" y="760" as="sourcePoint" />
            <mxPoint x="490" y="760" as="targetPoint" />
          </mxGeometry>
        </mxCell>
        <mxCell id="VlSEnMjIKudBYeggMokB-66" value="seg" style="text;html=1;strokeColor=none;fillColor=none;align=center;verticalAlign=middle;whiteSpace=wrap;rounded=0;" vertex="1" parent="1">
          <mxGeometry x="130" y="470" width="60" height="30" as="geometry" />
        </mxCell>
        <mxCell id="VlSEnMjIKudBYeggMokB-68" value="seg" style="text;html=1;strokeColor=none;fillColor=none;align=center;verticalAlign=middle;whiteSpace=wrap;rounded=0;" vertex="1" parent="1">
          <mxGeometry x="250" y="540" width="60" height="30" as="geometry" />
        </mxCell>
        <mxCell id="VlSEnMjIKudBYeggMokB-71" value="OCR" style="text;html=1;strokeColor=none;fillColor=none;align=center;verticalAlign=middle;whiteSpace=wrap;rounded=0;" vertex="1" parent="1">
          <mxGeometry x="320" y="560" width="100" height="15" as="geometry" />
        </mxCell>
        <mxCell id="VlSEnMjIKudBYeggMokB-76" value="ONE IMG" style="text;html=1;strokeColor=none;fillColor=none;align=center;verticalAlign=middle;whiteSpace=wrap;rounded=0;" vertex="1" parent="1">
          <mxGeometry x="210" y="680" width="60" height="30" as="geometry" />
        </mxCell>
        <mxCell id="VlSEnMjIKudBYeggMokB-77" value="ONE IMG" style="text;html=1;strokeColor=none;fillColor=none;align=center;verticalAlign=middle;whiteSpace=wrap;rounded=0;" vertex="1" parent="1">
          <mxGeometry x="330" y="810" width="60" height="30" as="geometry" />
        </mxCell>
      </root>
    </mxGraphModel>
  </diagram>
</mxfile>
